999
"DXF R12 Output" (www.mydxf.blogspot.com)
 0 
SECTION
 2 
HEADER
 9 
$ACADVER
 1 
AC1009
 9 
$EXTMIN
 10 
 0 
 20 
 0 
 9 
$EXTMAX
 10 
 8.5 
 20 
 11 
 0 
ENDSEC
 0 
SECTION
 2 
ENTITIES
0
LINE
8
Layer 1
10
-79.696800
20
37.816600
11
-79.609658
21
40.475480
0
LINE
8
Layer 1
10
-79.609658
20
40.475480
11
-79.486069
21
40.728437
0
LINE
8
Layer 1
10
-79.486069
20
40.728437
11
-79.232705
21
40.817002
0
LINE
8
Layer 1
10
-79.232705
20
40.817002
11
-76.717345
21
40.975199
0
LINE
8
Layer 1
10
-76.717345
20
40.975199
11
-76.406198
21
41.135487
0
LINE
8
Layer 1
10
-76.406198
20
41.135487
11
-73.554828
21
45.208667
0
LINE
8
Layer 1
10
-73.554828
20
45.208667
11
-73.105391
21
45.559961
0
LINE
8
Layer 1
10
-73.105391
20
45.559961
11
-71.937008
21
45.802674
0
LINE
8
Layer 1
10
-71.937008
20
45.802674
11
-69.534978
21
46.041152
0
LINE
8
Layer 1
10
-69.534978
20
46.041152
11
-69.419292
21
46.120191
0
LINE
8
Layer 1
10
-69.419292
20
46.120191
11
-69.183357
21
46.622968
0
LINE
8
Layer 1
10
-69.183357
20
46.622968
11
-69.202689
21
46.773827
0
LINE
8
Layer 1
10
-69.202689
20
46.773827
11
-69.523268
21
47.018973
0
LINE
8
Layer 1
10
-69.523268
20
47.018973
11
-69.555557
21
47.202595
0
LINE
8
Layer 1
10
-69.555557
20
47.202595
11
-68.835448
21
48.561035
0
LINE
8
Layer 1
10
-68.835448
20
48.561035
11
-68.657246
21
48.681722
0
LINE
8
Layer 1
10
-68.657246
20
48.681722
11
-63.121845
21
48.708082
0
LINE
8
Layer 1
10
-63.121845
20
48.708082
11
-62.907427
21
48.547791
0
LINE
8
Layer 1
10
-62.907427
20
48.547791
11
-61.481747
21
48.553915
0
LINE
8
Layer 1
10
-61.481747
20
48.553915
11
-61.217751
21
48.713605
0
LINE
8
Layer 1
10
-61.217751
20
48.713605
11
-57.193782
21
48.736465
0
LINE
8
Layer 1
10
-57.193782
20
48.736465
11
-56.921703
21
48.600496
0
LINE
8
Layer 1
10
-56.921703
20
48.600496
11
-56.373334
21
47.290646
0
LINE
8
Layer 1
10
-56.373334
20
47.290646
11
-56.421340
21
47.082634
0
LINE
8
Layer 1
10
-56.421340
20
47.082634
11
-56.880896
21
46.868616
0
LINE
8
Layer 1
10
-56.880896
20
46.868616
11
-56.920898
21
46.735275
0
LINE
8
Layer 1
10
-56.920898
20
46.735275
11
-56.388018
21
46.063365
0
LINE
8
Layer 1
10
-56.388018
20
46.063365
11
-56.234656
21
45.989234
0
LINE
8
Layer 1
10
-56.234656
20
45.989234
11
-54.594556
21
45.869225
0
LINE
8
Layer 1
10
-54.594556
20
45.869225
11
-54.266214
21
45.810038
0
LINE
8
Layer 1
10
-54.266214
20
45.810038
11
-53.987855
21
45.622543
0
LINE
8
Layer 1
10
-53.987855
20
45.622543
11
-50.180945
21
41.988993
0
LINE
8
Layer 1
10
-50.180945
20
41.988993
11
-50.087457
21
42.575305
0
LINE
8
Layer 1
10
-50.087457
20
42.575305
11
-49.829838
21
42.890071
0
LINE
8
Layer 1
10
-49.829838
20
42.890071
11
-49.167555
21
43.029053
0
LINE
8
Layer 1
10
-49.167555
20
43.029053
11
-48.771356
21
42.869894
0
LINE
8
Layer 1
10
-48.771356
20
42.869894
11
-48.549428
21
42.553150
0
LINE
8
Layer 1
10
-48.549428
20
42.553150
11
-48.554182
21
41.835643
0
LINE
8
Layer 1
10
-48.554182
20
41.835643
11
-49.034242
21
41.392371
0
LINE
8
Layer 1
10
-49.034242
20
41.392371
11
-49.620912
21
41.255606
0
LINE
8
Layer 1
10
-49.620912
20
41.255606
11
-48.300832
21
39.782186
0
LINE
8
Layer 1
10
-48.300832
20
39.782186
11
-47.639611
21
39.451334
0
LINE
8
Layer 1
10
-47.639611
20
39.451334
11
-42.769534
21
38.697438
0
LINE
8
Layer 1
10
-42.769534
20
38.697438
11
-40.723734
21
38.342266
0
LINE
8
Layer 1
10
-40.723734
20
38.342266
11
-37.024711
21
37.503194
0
LINE
8
Layer 1
10
-37.024711
20
37.503194
11
-35.300373
21
36.840903
0
LINE
8
Layer 1
10
-35.300373
20
36.840903
11
-34.351821
21
36.284404
0
LINE
8
Layer 1
10
-34.351821
20
36.284404
11
-34.162428
21
36.146232
0
LINE
8
Layer 1
10
-34.162428
20
36.146232
11
-34.085132
21
35.919669
0
LINE
8
Layer 1
10
-34.085132
20
35.919669
11
-34.139948
21
31.815039
0
LINE
8
Layer 1
10
-34.139948
20
31.815039
11
-33.993272
21
31.628360
0
LINE
8
Layer 1
10
-33.993272
20
31.628360
11
-32.433182
21
31.001655
0
LINE
8
Layer 1
10
-32.433182
20
31.001655
11
-32.299835
21
30.828312
0
LINE
8
Layer 1
10
-32.299835
20
30.828312
11
-32.446511
21
30.214939
0
LINE
8
Layer 1
10
-32.446511
20
30.214939
11
-32.566523
21
30.121599
0
LINE
8
Layer 1
10
-32.566523
20
30.121599
11
-32.834826
21
30.066648
0
LINE
8
Layer 1
10
-32.834826
20
30.066648
11
-32.859859
21
29.334886
0
LINE
8
Layer 1
10
-32.859859
20
29.334886
11
-32.996660
21
29.068103
0
LINE
8
Layer 1
10
-32.996660
20
29.068103
11
-33.246551
21
28.961531
0
LINE
8
Layer 1
10
-33.246551
20
28.961531
11
-37.926841
21
28.014806
0
LINE
8
Layer 1
10
-37.926841
20
28.014806
11
-40.354321
21
26.989406
0
LINE
8
Layer 1
10
-40.354321
20
26.989406
11
-40.767014
21
26.868068
0
LINE
8
Layer 1
10
-40.767014
20
26.868068
11
-44.353904
21
26.601382
0
LINE
8
Layer 1
10
-44.353904
20
26.601382
11
-50.910404
21
25.194292
0
LINE
8
Layer 1
10
-50.910404
20
25.194292
11
-51.850486
21
25.046589
0
LINE
8
Layer 1
10
-51.850486
20
25.046589
11
-52.758324
21
25.058524
0
LINE
8
Layer 1
10
-52.758324
20
25.058524
11
-53.541129
21
25.281299
0
LINE
8
Layer 1
10
-53.541129
20
25.281299
11
-54.154502
21
25.761328
0
LINE
8
Layer 1
10
-54.154502
20
25.761328
11
-55.727932
21
25.627987
0
LINE
8
Layer 1
10
-55.727932
20
25.627987
11
-56.101289
21
25.694659
0
LINE
8
Layer 1
10
-56.101289
20
25.694659
11
-56.928010
21
26.494708
0
LINE
8
Layer 1
10
-56.928010
20
26.494708
11
-57.168252
21
25.269868
0
LINE
8
Layer 1
10
-57.168252
20
25.269868
11
-57.707841
21
24.049526
0
LINE
8
Layer 1
10
-57.707841
20
24.049526
11
-58.556945
21
23.113606
0
LINE
8
Layer 1
10
-58.556945
20
23.113606
11
-59.100742
21
22.839779
0
LINE
8
Layer 1
10
-59.100742
20
22.839779
11
-59.725730
21
22.742028
0
LINE
8
Layer 1
10
-59.725730
20
22.742028
11
-60.580591
21
22.906117
0
LINE
8
Layer 1
10
-60.580591
20
22.906117
11
-61.304447
21
23.283458
0
LINE
8
Layer 1
10
-61.304447
20
23.283458
11
-61.903807
21
23.836992
0
LINE
8
Layer 1
10
-61.903807
20
23.836992
11
-62.385180
21
24.529658
0
LINE
8
Layer 1
10
-62.385180
20
24.529658
11
-63.020000
21
26.184147
0
LINE
8
Layer 1
10
-63.020000
20
26.184147
11
-63.260980
21
27.950448
0
LINE
8
Layer 1
10
-63.260980
20
27.950448
11
-74.133900
21
32.715800
0
LINE
8
Layer 1
10
-74.133900
20
32.715800
11
-74.449502
21
31.624677
0
LINE
8
Layer 1
10
-74.449502
20
31.624677
11
-74.943702
21
30.952669
0
LINE
8
Layer 1
10
-74.943702
20
30.952669
11
-75.518268
21
30.629911
0
LINE
8
Layer 1
10
-75.518268
20
30.629911
11
-76.074970
21
30.586540
0
LINE
8
Layer 1
10
-76.074970
20
30.586540
11
-76.483244
21
30.739720
0
LINE
8
Layer 1
10
-76.483244
20
30.739720
11
-76.831342
21
31.031187
0
LINE
8
Layer 1
10
-76.831342
20
31.031187
11
-77.348774
21
31.946809
0
LINE
8
Layer 1
10
-77.348774
20
31.946809
11
-77.630801
21
33.169075
0
LINE
8
Layer 1
10
-77.630801
20
33.169075
11
-77.680960
21
34.533650
0
LINE
8
Layer 1
10
-77.680960
20
34.533650
11
-80.055090
21
36.110120
0
LINE
8
Layer 1
10
-80.055090
20
36.110120
11
-80.149459
21
36.255279
0
LINE
8
Layer 1
10
-80.149459
20
36.255279
11
-80.162808
21
37.575359
0
LINE
8
Layer 1
10
-80.162808
20
37.575359
11
-80.036130
21
37.715367
0
LINE
8
Layer 1
10
-80.036130
20
37.715367
11
-79.762778
21
37.728688
0
LINE
8
Layer 1
10
-79.762778
20
37.728688
11
-79.696809
21
37.816575
0
LINE
8
Layer 1
10
-79.696809
20
37.816575
11
-79.696800
21
37.816600
 0 
ENDSEC
 0 
EOF